<?xml version="1.0" encoding="UTF-8"?>
<svg id="Layer_1" xmlns="http://www.w3.org/2000/svg" version="1.1" viewBox="0 0 300 300">
  <!-- Generator: Adobe Illustrator 29.1.0, SVG Export Plug-In . SVG Version: 2.1.0 Build 142)  -->
  <defs>
    <style>
      .st0 {
        fill: #fff;
      }

      .st1 {
        fill: #cbcbcb;
      }
    </style>
  </defs>
  <path class="st1" d="M275,150c0,69.04-55.96,125-125,125h0c-69.04,0-125-55.96-125-125h0c0-69.04,55.96-125,125-125h0c69.04,0,125,55.96,125,125h0Z"/>
  <path class="st0" d="M187.04,140.3l-2.08,16.72c-.35,2.8-2.72,4.9-5.52,4.9h-27.08v69.92c-2.86.26-5.75.39-8.68.39-6.54,0-12.93-.66-19.1-1.9v-68.41h-20.83c-1.91,0-3.47-1.57-3.47-3.49v-20.92c0-1.92,1.56-3.49,3.47-3.49h20.83v-31.38c0-19.26,15.55-34.87,34.73-34.87h24.3c1.91,0,3.47,1.57,3.47,3.49v20.92c0,1.92-1.56,3.49-3.47,3.49h-17.36c-7.67,0-13.89,6.24-13.89,13.95v24.41h29.17c3.35,0,5.94,2.95,5.52,6.28Z"/>
</svg>